              <svg
                width="288"
                height="170"
                viewBox="0 0 288 170"
                fill="none"
                xmlns="http://www.w3.org/2000/svg"
              >
                <path
                  d="M87.2 122C94.9333 122 102.133 121.2 108.8 119.6C115.6 117.867 121.467 115.2 126.4 111.6C131.467 107.867 135.4 103.067 138.2 97.2C141 91.2 142.4 83.8667 142.4 75.2C142.4 66 140.867 58.4 137.8 52.4C134.733 46.4 130.533 41.6 125.2 38C119.867 34.4 113.667 31.9333 106.6 30.6C99.5333 29.1333 92 28.4 84 28.4C76.2667 28.4 69 29.2667 62.2 31C55.5333 32.6 49.7333 35.2667 44.8 39C39.8667 42.6 35.9333 47.4 33 53.4C30.2 59.4 28.8 66.6667 28.8 75.2C28.8 84.4 30.3333 92.0667 33.4 98.2C36.4667 104.2 40.6 109 45.8 112.6C51.1333 116.067 57.3333 118.533 64.4 120C71.6 121.333 79.2 122 87.2 122ZM84 110.8C78 110.8 72.3333 110.2 67 109C61.6667 107.8 57 105.8 53 103C49 100.2 45.8 96.5333 43.4 92C41.1333 87.4667 40 81.8667 40 75.2C40 68 41.2667 62.0667 43.8 57.4C46.4667 52.7333 50 49.1333 54.4 46.6C58.8 43.9333 63.8 42.1333 69.4 41.2C75.1333 40.1333 81.0667 39.6 87.2 39.6C93.0667 39.6 98.6667 40.2 104 41.4C109.333 42.6 114 44.6 118 47.4C122 50.2 125.2 53.8667 127.6 58.4C130 62.9333 131.2 68.5333 131.2 75.2C131.2 82.5333 129.867 88.5333 127.2 93.2C124.667 97.7333 121.2 101.333 116.8 104C112.4 106.533 107.333 108.333 101.6 109.4C96 110.333 90.1333 110.8 84 110.8ZM16.2 75.2C16.2 63.7333 18 54.2 21.6 46.6C25.3333 39 30.4 33 36.8 28.6C43.2 24.0667 50.6667 20.8667 59.2 19C67.8667 17.1333 77.2 16.2 87.2 16.2C96.9333 16.2 105.933 17.2667 114.2 19.4C122.467 21.5333 129.6 24.9333 135.6 29.6C141.733 34.2667 146.467 40.3333 149.8 47.8C153.267 55.2667 155 64.4 155 75.2C155 86.6667 153.133 96.2 149.4 103.8C145.8 111.4 140.8 117.467 134.4 122C128 126.4 120.467 129.533 111.8 131.4C103.267 133.267 94 134.2 84 134.2C74.2667 134.2 65.2667 133.133 57 131C48.7333 128.867 41.5333 125.467 35.4 120.8C29.4 116.133 24.6667 110.067 21.2 102.6C17.8667 95.1333 16.2 86 16.2 75.2ZM5 75.2C5 88.5333 7.06667 99.7333 11.2 108.8C15.3333 117.733 21.0667 124.933 28.4 130.4C35.7333 135.733 44.4 139.6 54.4 142C64.4 144.267 75.3333 145.4 87.2 145.4C98.8 145.4 109.4 144.133 119 141.6C128.733 138.933 137.067 134.8 144 129.2C151.067 123.6 156.533 116.4 160.4 107.6C164.267 98.6667 166.2 87.8667 166.2 75.2C166.2 61.8667 164.133 50.7333 160 41.8C155.867 32.7333 150.133 25.5333 142.8 20.2C135.467 14.7333 126.733 10.8667 116.6 8.6C106.6 6.2 95.7333 5 84 5C72.4 5 61.7333 6.33333 52 8.99999C42.4 11.5333 34.0667 15.6 27 21.2C20.0667 26.8 14.6667 34.0667 10.8 43C6.93333 51.8 5 62.5333 5 75.2ZM0 75.2C0 61.6 2.06667 50.0667 6.2 40.6C10.3333 31 16.0667 23.2 23.4 17.2C30.8667 11.2 39.7333 6.86666 50 4.19999C60.4 1.4 71.7333 0 84 0C100 0 114.133 1.8 126.4 5.39999C138.667 8.99999 149.533 15.2667 159 24.2C165.533 30.6 170.8 36.8 174.8 42.8C178.933 48.6667 182.133 54.4667 184.4 60.2C186.8 65.9333 188.4 71.6667 189.2 77.4C190.133 83.1333 190.6 89.0667 190.6 95.2C190.6 108.667 188.533 120.133 184.4 129.6C180.267 139.067 174.533 146.733 167.2 152.6C159.867 158.6 151.067 162.933 140.8 165.6C130.533 168.4 119.333 169.8 107.2 169.8C100.133 169.8 93.2667 169.467 86.6 168.8C80.0667 168.133 73.4667 166.667 66.8 164.4C60.2667 162.133 53.6 158.8 46.8 154.4C40 150 32.8667 144.067 25.4 136.6C17.5333 130.733 11.3333 122.667 6.8 112.4C2.26667 102 0 89.6 0 75.2ZM84 105.8C89.4667 105.8 94.7333 105.4 99.8 104.6C104.867 103.8 109.333 102.267 113.2 100C117.2 97.7333 120.333 94.6 122.6 90.6C125 86.6 126.2 81.4667 126.2 75.2C126.2 72 125.8 69.0667 125 66.4C119.533 64.8 113.6 64 107.2 64C101.6 64 96.2 64.4667 91 65.4C85.9333 66.2 81.4 67.8 77.4 70.2C73.5333 72.4667 70.4 75.6 68 79.6C65.6 83.6 64.4 88.8 64.4 95.2C64.4 96.6667 64.4 98.0667 64.4 99.4C64.5333 100.733 64.7333 102 65 103.2C70.6 104.933 76.9333 105.8 84 105.8Z"
                  fill="white"
                />
                <path
                  d="M222.587 25.2L242.788 16.2H251.988V134.2H239.988V31.4L222.587 39V25.2ZM211.788 55.8L228.988 48.4V145.4H262.988V5H240.988L211.788 18.2V55.8ZM206.788 15L239.788 0H267.988L287.388 20.6V169.8H244.588L223.988 150.4V79L206.788 63.4V15Z"
                  fill="white"
                />
              </svg>