<svg width="393" height="172" viewBox="0 0 393 172" fill="none" xmlns="http://www.w3.org/2000/svg">
<path d="M87.2 123.8C94.9333 123.8 102.133 123 108.8 121.4C115.6 119.667 121.467 117 126.4 113.4C131.467 109.667 135.4 104.867 138.2 99C141 93 142.4 85.6667 142.4 77C142.4 67.8 140.867 60.2 137.8 54.2C134.733 48.2 130.533 43.4 125.2 39.8C119.867 36.2 113.667 33.7333 106.6 32.4C99.5333 30.9333 92 30.2 84 30.2C76.2667 30.2 69 31.0667 62.2 32.8C55.5333 34.4 49.7333 37.0667 44.8 40.8C39.8667 44.4 35.9333 49.2 33 55.2C30.2 61.2 28.8 68.4667 28.8 77C28.8 86.2 30.3333 93.8667 33.4 100C36.4667 106 40.6 110.8 45.8 114.4C51.1333 117.867 57.3333 120.333 64.4 121.8C71.6 123.133 79.2 123.8 87.2 123.8ZM84 112.6C78 112.6 72.3333 112 67 110.8C61.6667 109.6 57 107.6 53 104.8C49 102 45.8 98.3333 43.4 93.8C41.1333 89.2667 40 83.6667 40 77C40 69.8 41.2667 63.8667 43.8 59.2C46.4667 54.5333 50 50.9333 54.4 48.4C58.8 45.7333 63.8 43.9333 69.4 43C75.1333 41.9333 81.0667 41.4 87.2 41.4C93.0667 41.4 98.6667 42 104 43.2C109.333 44.4 114 46.4 118 49.2C122 52 125.2 55.6667 127.6 60.2C130 64.7333 131.2 70.3333 131.2 77C131.2 84.3333 129.867 90.3333 127.2 95C124.667 99.5333 121.2 103.133 116.8 105.8C112.4 108.333 107.333 110.133 101.6 111.2C96 112.133 90.1333 112.6 84 112.6ZM16.2 77C16.2 65.5333 18 56 21.6 48.4C25.3333 40.8 30.4 34.8 36.8 30.4C43.2 25.8667 50.6667 22.6667 59.2 20.8C67.8667 18.9333 77.2 18 87.2 18C96.9333 18 105.933 19.0667 114.2 21.2C122.467 23.3333 129.6 26.7333 135.6 31.4C141.733 36.0667 146.467 42.1333 149.8 49.6C153.267 57.0667 155 66.2 155 77C155 88.4667 153.133 98 149.4 105.6C145.8 113.2 140.8 119.267 134.4 123.8C128 128.2 120.467 131.333 111.8 133.2C103.267 135.067 94 136 84 136C74.2667 136 65.2667 134.933 57 132.8C48.7333 130.667 41.5333 127.267 35.4 122.6C29.4 117.933 24.6667 111.867 21.2 104.4C17.8667 96.9333 16.2 87.8 16.2 77ZM5 77C5 90.3333 7.06667 101.533 11.2 110.6C15.3333 119.533 21.0667 126.733 28.4 132.2C35.7333 137.533 44.4 141.4 54.4 143.8C64.4 146.067 75.3333 147.2 87.2 147.2C98.8 147.2 109.4 145.933 119 143.4C128.733 140.733 137.067 136.6 144 131C151.067 125.4 156.533 118.2 160.4 109.4C164.267 100.467 166.2 89.6667 166.2 77C166.2 63.6667 164.133 52.5333 160 43.6C155.867 34.5333 150.133 27.3333 142.8 22C135.467 16.5333 126.733 12.6667 116.6 10.4C106.6 8 95.7333 6.8 84 6.8C72.4 6.8 61.7333 8.13333 52 10.8C42.4 13.3333 34.0667 17.4 27 23C20.0667 28.6 14.6667 35.8667 10.8 44.8C6.93333 53.6 5 64.3333 5 77ZM0 77C0 63.4 2.06667 51.8667 6.2 42.4C10.3333 32.8 16.0667 25 23.4 19C30.8667 13 39.7333 8.66666 50 5.99999C60.4 3.2 71.7333 1.8 84 1.8C100 1.8 114.133 3.6 126.4 7.19999C138.667 10.8 149.533 17.0667 159 26C165.533 32.4 170.8 38.6 174.8 44.6C178.933 50.4667 182.133 56.2667 184.4 62C186.8 67.7333 188.4 73.4667 189.2 79.2C190.133 84.9333 190.6 90.8667 190.6 97C190.6 110.467 188.533 121.933 184.4 131.4C180.267 140.867 174.533 148.533 167.2 154.4C159.867 160.4 151.067 164.733 140.8 167.4C130.533 170.2 119.333 171.6 107.2 171.6C100.133 171.6 93.2667 171.267 86.6 170.6C80.0667 169.933 73.4667 168.467 66.8 166.2C60.2667 163.933 53.6 160.6 46.8 156.2C40 151.8 32.8667 145.867 25.4 138.4C17.5333 132.533 11.3333 124.467 6.8 114.2C2.26667 103.8 0 91.4 0 77ZM84 107.6C89.4667 107.6 94.7333 107.2 99.8 106.4C104.867 105.6 109.333 104.067 113.2 101.8C117.2 99.5333 120.333 96.4 122.6 92.4C125 88.4 126.2 83.2667 126.2 77C126.2 73.8 125.8 70.8667 125 68.2C119.533 66.6 113.6 65.8 107.2 65.8C101.6 65.8 96.2 66.2667 91 67.2C85.9333 68 81.4 69.6 77.4 72C73.5333 74.2667 70.4 77.4 68 81.4C65.6 85.4 64.4 90.6 64.4 97C64.4 98.4667 64.4 99.8667 64.4 101.2C64.5333 102.533 64.7333 103.8 65 105C70.6 106.733 76.9333 107.6 84 107.6Z" fill="white"/>
<path d="M236.988 41.2C240.988 36.4 245.388 32.4 250.188 29.2C254.987 25.8667 260.054 23.2667 265.388 21.4C270.721 19.5333 276.254 18.2 281.988 17.4C287.854 16.6 293.788 16.2 299.788 16.2C305.254 16.2 310.988 16.8667 316.988 18.2C323.121 19.5333 328.721 21.6667 333.788 24.6C338.988 27.4 343.254 31.1333 346.587 35.8C349.921 40.4667 351.587 46.0667 351.587 52.6C351.587 62.3333 349.121 70.9333 344.188 78.4C339.388 85.7333 333.254 92.2667 325.788 98C318.454 103.733 310.454 108.667 301.788 112.8C293.121 116.933 284.988 120.6 277.388 123.8H356.788V136H231.188V125C236.921 124.067 243.521 122.667 250.988 120.8C258.588 118.8 266.388 116.4 274.388 113.6C282.521 110.667 290.454 107.267 298.188 103.4C306.054 99.4 313.054 94.9333 319.188 90C325.321 84.9333 330.254 79.4 333.987 73.4C337.854 67.2667 339.788 60.6 339.788 53.4C339.788 47.8 338.187 43.4 334.987 40.2C331.921 36.8667 328.054 34.3333 323.388 32.6C318.854 30.7333 313.988 29.5333 308.788 29C303.588 28.4667 298.921 28.2 294.788 28.2C285.988 28.2 277.454 30 269.188 33.6C261.054 37.0667 254.187 42.2 248.587 49L236.988 41.2ZM250.988 64.2C256.588 56.0667 263.121 49.9333 270.587 45.8C278.187 41.5333 286.921 39.4 296.788 39.4C298.921 39.4 301.788 39.5333 305.388 39.8C308.988 40.0667 312.454 40.7333 315.788 41.8C319.254 42.7333 322.254 44.1333 324.788 46C327.321 47.7333 328.587 50.2 328.587 53.4C328.587 59.5333 326.587 65.2667 322.587 70.6C318.587 75.9333 313.388 80.8667 306.988 85.4C300.721 89.8 293.587 93.7333 285.587 97.2C277.587 100.667 269.587 103.667 261.587 106.2C253.587 108.733 245.921 110.733 238.587 112.2C231.254 113.667 225.121 114.6 220.188 115V147.2H367.788V112.6H322.987C328.587 109.533 333.787 105.933 338.587 101.8C343.521 97.6667 347.721 93.0667 351.188 88C354.788 82.8 357.587 77.2667 359.587 71.4C361.721 65.5333 362.788 59.2667 362.788 52.6C362.788 43.4 360.654 35.7333 356.388 29.6C352.121 23.4667 346.654 18.6 339.988 15C333.454 11.4 326.121 8.86666 317.988 7.4C309.988 5.8 302.254 5 294.788 5C287.454 5 280.254 5.93333 273.188 7.79999C266.254 9.53333 259.588 12.0667 253.188 15.4C246.921 18.7333 241.054 22.8 235.587 27.6C230.121 32.4 225.387 37.8 221.387 43.8L250.988 64.2ZM215.188 152.2V110.4C219.588 110.133 224.921 109.4 231.188 108.2C237.588 107 244.321 105.467 251.387 103.6C258.454 101.733 265.588 99.4667 272.788 96.8C280.121 94.1333 286.921 91.1333 293.188 87.8C299.588 84.4667 305.188 80.8667 309.988 77C314.921 73 318.587 68.6667 320.987 64C320.187 63.8667 319.387 63.8 318.587 63.8C317.921 63.8 317.321 63.8 316.788 63.8C307.721 63.8 299.521 66.0667 292.188 70.6C284.854 75 278.187 81.5333 272.188 90.2L235.387 65L214.587 45.2C219.254 38.2667 224.587 32 230.587 26.4C236.721 20.8 243.254 16.0667 250.188 12.2C257.121 8.19999 264.321 5.19999 271.788 3.19999C279.388 1.06666 287.054 0 294.788 0C300.521 0 306.454 0.466665 312.587 1.39999C318.721 2.19999 324.654 3.59999 330.388 5.6C336.254 7.46667 341.721 9.86667 346.788 12.8C351.854 15.7333 356.254 19.2667 359.988 23.4C365.588 29 370.121 34.0667 373.587 38.6C377.187 43.1333 379.988 47.3333 381.988 51.2C383.988 55.0667 385.321 58.7333 385.988 62.2C386.788 65.6667 387.188 69.1333 387.188 72.6C387.188 79.8 386.054 86.6 383.788 93C381.521 99.2667 378.454 105.2 374.587 110.8L392.188 128.2V171.6H235.788L215.188 152.2Z" fill="white"/>
</svg>
