<svg width="393" height="173" viewBox="0 0 393 173" fill="none" xmlns="http://www.w3.org/2000/svg">
<path d="M87.2 123.6C94.9333 123.6 102.133 122.8 108.8 121.2C115.6 119.467 121.467 116.8 126.4 113.2C131.467 109.467 135.4 104.667 138.2 98.8C141 92.8 142.4 85.4667 142.4 76.8C142.4 67.6 140.867 60 137.8 54C134.733 48 130.533 43.2 125.2 39.6C119.867 36 113.667 33.5333 106.6 32.2C99.5333 30.7333 92 30 84 30C76.2667 30 69 30.8667 62.2 32.6C55.5333 34.2 49.7333 36.8667 44.8 40.6C39.8667 44.2 35.9333 49 33 55C30.2 61 28.8 68.2667 28.8 76.8C28.8 86 30.3333 93.6667 33.4 99.8C36.4667 105.8 40.6 110.6 45.8 114.2C51.1333 117.667 57.3333 120.133 64.4 121.6C71.6 122.933 79.2 123.6 87.2 123.6ZM84 112.4C78 112.4 72.3333 111.8 67 110.6C61.6667 109.4 57 107.4 53 104.6C49 101.8 45.8 98.1333 43.4 93.6C41.1333 89.0667 40 83.4667 40 76.8C40 69.6 41.2667 63.6667 43.8 59C46.4667 54.3333 50 50.7333 54.4 48.2C58.8 45.5333 63.8 43.7333 69.4 42.8C75.1333 41.7333 81.0667 41.2 87.2 41.2C93.0667 41.2 98.6667 41.8 104 43C109.333 44.2 114 46.2 118 49C122 51.8 125.2 55.4667 127.6 60C130 64.5333 131.2 70.1333 131.2 76.8C131.2 84.1333 129.867 90.1333 127.2 94.8C124.667 99.3333 121.2 102.933 116.8 105.6C112.4 108.133 107.333 109.933 101.6 111C96 111.933 90.1333 112.4 84 112.4ZM16.2 76.8C16.2 65.3333 18 55.8 21.6 48.2C25.3333 40.6 30.4 34.6 36.8 30.2C43.2 25.6667 50.6667 22.4667 59.2 20.6C67.8667 18.7333 77.2 17.8 87.2 17.8C96.9333 17.8 105.933 18.8667 114.2 21C122.467 23.1333 129.6 26.5333 135.6 31.2C141.733 35.8667 146.467 41.9333 149.8 49.4C153.267 56.8667 155 66 155 76.8C155 88.2667 153.133 97.8 149.4 105.4C145.8 113 140.8 119.067 134.4 123.6C128 128 120.467 131.133 111.8 133C103.267 134.867 94 135.8 84 135.8C74.2667 135.8 65.2667 134.733 57 132.6C48.7333 130.467 41.5333 127.067 35.4 122.4C29.4 117.733 24.6667 111.667 21.2 104.2C17.8667 96.7333 16.2 87.6 16.2 76.8ZM5 76.8C5 90.1333 7.06667 101.333 11.2 110.4C15.3333 119.333 21.0667 126.533 28.4 132C35.7333 137.333 44.4 141.2 54.4 143.6C64.4 145.867 75.3333 147 87.2 147C98.8 147 109.4 145.733 119 143.2C128.733 140.533 137.067 136.4 144 130.8C151.067 125.2 156.533 118 160.4 109.2C164.267 100.267 166.2 89.4667 166.2 76.8C166.2 63.4667 164.133 52.3333 160 43.4C155.867 34.3333 150.133 27.1333 142.8 21.8C135.467 16.3333 126.733 12.4667 116.6 10.2C106.6 7.8 95.7333 6.6 84 6.6C72.4 6.6 61.7333 7.93333 52 10.6C42.4 13.1333 34.0667 17.2 27 22.8C20.0667 28.4 14.6667 35.6667 10.8 44.6C6.93333 53.4 5 64.1333 5 76.8ZM0 76.8C0 63.2 2.06667 51.6667 6.2 42.2C10.3333 32.6 16.0667 24.8 23.4 18.8C30.8667 12.8 39.7333 8.46666 50 5.8C60.4 3 71.7333 1.6 84 1.6C100 1.6 114.133 3.4 126.4 6.99999C138.667 10.6 149.533 16.8667 159 25.8C165.533 32.2 170.8 38.4 174.8 44.4C178.933 50.2667 182.133 56.0667 184.4 61.8C186.8 67.5333 188.4 73.2667 189.2 79C190.133 84.7333 190.6 90.6667 190.6 96.8C190.6 110.267 188.533 121.733 184.4 131.2C180.267 140.667 174.533 148.333 167.2 154.2C159.867 160.2 151.067 164.533 140.8 167.2C130.533 170 119.333 171.4 107.2 171.4C100.133 171.4 93.2667 171.067 86.6 170.4C80.0667 169.733 73.4667 168.267 66.8 166C60.2667 163.733 53.6 160.4 46.8 156C40 151.6 32.8667 145.667 25.4 138.2C17.5333 132.333 11.3333 124.267 6.8 114C2.26667 103.6 0 91.2 0 76.8ZM84 107.4C89.4667 107.4 94.7333 107 99.8 106.2C104.867 105.4 109.333 103.867 113.2 101.6C117.2 99.3333 120.333 96.2 122.6 92.2C125 88.2 126.2 83.0667 126.2 76.8C126.2 73.6 125.8 70.6667 125 68C119.533 66.4 113.6 65.6 107.2 65.6C101.6 65.6 96.2 66.0667 91 67C85.9333 67.8 81.4 69.4 77.4 71.8C73.5333 74.0667 70.4 77.2 68 81.2C65.6 85.2 64.4 90.4 64.4 96.8C64.4 98.2667 64.4 99.6667 64.4 101C64.5333 102.333 64.7333 103.6 65 104.8C70.6 106.533 76.9333 107.4 84 107.4Z" fill="white"/>
<path d="M248.188 104.8C251.921 109.467 255.788 113.2 259.788 116C263.921 118.667 268.254 120.733 272.788 122.2C277.454 123.533 282.254 124.4 287.188 124.8C292.254 125.2 297.521 125.4 302.987 125.4C306.587 125.4 310.787 125.067 315.587 124.4C320.387 123.6 324.921 122.333 329.188 120.6C333.587 118.733 337.254 116.267 340.188 113.2C343.254 110 344.788 106.067 344.788 101.4C344.788 98.2 343.921 95.5333 342.188 93.4C340.454 91.1333 338.188 89.2667 335.388 87.8C332.721 86.3333 329.654 85.2667 326.188 84.6C322.854 83.8 319.454 83.2667 315.988 83C312.521 82.6 309.188 82.4 305.988 82.4C302.788 82.2667 300.121 82.2 297.988 82.2V70.4C301.054 70.4 304.921 70.2667 309.587 70C314.387 69.7333 319.054 68.9333 323.587 67.6C328.121 66.2667 331.987 64.4 335.188 62C338.387 59.4667 339.988 56 339.988 51.6C339.988 46.5333 338.321 42.4667 334.987 39.4C331.654 36.3333 327.588 34 322.788 32.4C317.988 30.6667 312.988 29.5333 307.788 29C302.588 28.4667 298.187 28.2 294.587 28.2C285.787 28.2 277.254 29.9333 268.988 33.4C260.854 36.8667 253.921 42.0667 248.188 49C246.321 47.8 244.454 46.6 242.587 45.4C240.721 44.0667 238.854 42.8667 236.988 41.8C240.988 36.4667 245.388 32.1333 250.188 28.8C255.121 25.3333 260.321 22.6667 265.788 20.8C271.254 18.9333 276.987 17.6667 282.987 17C288.987 16.3333 295.121 16 301.388 16C306.588 16 312.188 16.6667 318.188 18C324.188 19.3333 329.721 21.4667 334.788 24.4C339.988 27.2 344.254 30.8667 347.587 35.4C350.921 39.8 352.588 45.2 352.588 51.6C352.588 55.2 351.654 58.4 349.788 61.2C347.921 64 345.588 66.4 342.788 68.4C339.988 70.4 336.854 72 333.388 73.2C330.054 74.2667 326.854 74.8667 323.788 75C327.254 75.4 330.987 76.2 334.987 77.4C338.987 78.6 342.654 80.3333 345.987 82.6C349.321 84.7333 352.054 87.4 354.188 90.6C356.454 93.6667 357.587 97.2667 357.587 101.4C357.587 109.4 355.388 115.8 350.988 120.6C346.721 125.4 341.387 129.067 334.987 131.6C328.587 134.133 321.721 135.8 314.388 136.6C307.054 137.267 300.454 137.6 294.587 137.6C289.121 137.6 283.654 137.133 278.188 136.2C272.854 135.133 267.654 133.533 262.587 131.4C257.654 129.267 252.987 126.6 248.587 123.4C244.321 120.067 240.521 116.2 237.188 111.8L248.188 104.8ZM221.788 109C226.988 117 232.654 123.6 238.788 128.8C244.921 133.867 251.454 137.867 258.388 140.8C265.454 143.733 272.988 145.733 280.988 146.8C288.988 148 297.454 148.6 306.388 148.6C313.321 148.6 320.454 147.667 327.788 145.8C335.254 143.933 341.988 141.067 347.988 137.2C353.988 133.333 358.921 128.467 362.788 122.6C366.654 116.6 368.587 109.533 368.587 101.4C368.587 98.7333 368.054 96.0667 366.988 93.4C365.921 90.7333 364.521 88.2 362.788 85.8C361.054 83.4 359.054 81.2667 356.788 79.4C354.654 77.5333 352.454 76 350.188 74.8C352.054 74 353.788 72.7333 355.388 71C357.121 69.2667 358.588 67.3333 359.788 65.2C360.988 62.9333 361.921 60.6667 362.587 58.4C363.387 56 363.788 53.7333 363.788 51.6C363.788 45.4667 362.721 40.0667 360.587 35.4C358.587 30.6 355.854 26.4667 352.388 23C348.921 19.5333 344.854 16.6667 340.188 14.4C335.654 12.1333 330.787 10.3333 325.587 9C320.521 7.53333 315.321 6.53333 309.988 5.99999C304.654 5.33333 299.521 5 294.587 5C279.654 5 265.788 8.46666 252.988 15.4C240.188 22.3333 229.721 32.0667 221.587 44.6L250.988 64.2C256.721 55.4 263.454 49.0667 271.188 45.2C279.054 41.2 288.121 39.2 298.388 39.2C300.121 39.2 302.721 39.3333 306.188 39.6C309.654 39.8667 313.054 40.4667 316.388 41.4C319.854 42.3333 322.854 43.6 325.388 45.2C327.921 46.8 329.188 48.9333 329.188 51.6C329.188 53.8667 327.254 55.5333 323.388 56.6C319.654 57.6667 315.321 58.4 310.388 58.8C305.454 59.2 300.721 59.4 296.188 59.4C291.654 59.4 288.588 59.4 286.988 59.4V93.2C288.054 93.2 289.921 93.2 292.587 93.2C295.387 93.0667 298.521 93.0667 301.987 93.2C305.454 93.2 309.054 93.3333 312.788 93.6C316.521 93.7333 319.921 94.1333 322.987 94.8C326.187 95.3333 328.788 96.1333 330.788 97.2C332.788 98.2667 333.788 99.6667 333.788 101.4C333.788 104.733 332.121 107.333 328.788 109.2C325.588 110.933 321.788 112.2 317.388 113C313.121 113.8 308.788 114.267 304.388 114.4C299.988 114.4 296.721 114.4 294.587 114.4C285.654 114.4 277.388 112.2 269.788 107.8C262.321 103.267 256.121 97.3333 251.188 90L221.788 109ZM252.387 83.2L268.788 100.6C272.654 103.4 276.721 105.6 280.988 107.2C285.254 108.667 289.721 109.4 294.388 109.4L281.988 98.2V78.2C280.121 79.8 278.388 81.6667 276.788 83.8C275.188 85.8 273.654 87.9333 272.188 90.2L235.587 65.8L214.587 46C224.054 31.3333 235.788 20 249.788 12C263.788 4 278.721 0 294.587 0C300.454 0 306.454 0.399999 312.587 1.2C318.854 1.99999 324.921 3.33333 330.788 5.2C336.788 7.06667 342.387 9.53334 347.587 12.6C352.787 15.5333 357.321 19.2 361.188 23.6C366.787 29.2 371.321 34.2 374.788 38.6C378.387 43 381.121 47.0667 382.987 50.8C384.987 54.5333 386.321 58.1333 386.988 61.6C387.788 64.9333 388.188 68.2667 388.188 71.6C388.188 75.6 387.321 79.4667 385.587 83.2C383.854 86.8 381.654 90.0667 378.988 93L379.788 93.6C383.521 97.3333 386.654 101.667 389.188 106.6C391.721 111.4 392.988 116.333 392.988 121.4C392.988 130.333 390.921 138.067 386.788 144.6C382.654 151 377.321 156.267 370.788 160.4C364.388 164.667 357.254 167.8 349.388 169.8C341.521 171.933 333.854 173 326.388 173C318.921 173 311.788 172.6 304.988 171.8C298.188 171 291.588 169.6 285.188 167.6C278.921 165.6 272.921 162.867 267.188 159.4C261.454 156.067 255.988 151.8 250.788 146.6C245.588 141.8 241.121 137.6 237.387 134C233.654 130.4 230.387 127.133 227.587 124.2C224.921 121.133 222.521 118.333 220.387 115.8C218.387 113.133 216.521 110.4 214.788 107.6L252.387 83.2Z" fill="white"/>
</svg>
