<svg xmlns="http://www.w3.org/2000/svg" viewBox="0 0 576 512">
          <!--!Font Awesome Pro 6.6.0 by @fontawesome - https://fontawesome.com License - https://fontawesome.com/license (Commercial License) Copyright 2024 Fonticons, Inc.-->
          <defs>
            <linearGradient
              id="sitemap-gradient"
              x1="-100%"
              y1="0%"
              x2="0%"
              y2="0%"
            >
              <stop offset="0%" style="stop-color: var(--gradient-1)" />
              <stop offset="50%" style="stop-color: var(--gradient-2)" />
              <stop offset="100%" style="stop-color: var(--gradient-1)" />
              <animate
                attributeName="x1"
                values="-100%; 100%"
                dur="4s"
                repeatCount="indefinite"
              />
              <animate
                attributeName="x2"
                values="0%; 200%"
                dur="4s"
                repeatCount="indefinite"
              />
            </linearGradient>
          </defs>

          <path
            d="M256 32c-26.5 0-48 21.5-48 48l0 64c0 26.5 21.5 48 48 48l24 
      0 0 56-168 0c-22.1 0-40 17.9-40 40l0 32-24 0c-26.5 0-48 21.5-48 
      48l0 64c0 26.5 21.5 48 48 48l64 0c26.5 0 48-21.5 
      48-48l0-64c0-26.5-21.5-48-48-48l-24 0 0-32c0-13.3 10.7-24 24-24l168 
      0 0 56-24 0c-26.5 0-48 21.5-48 48l0 64c0 26.5 21.5 48 48 48l64 0c26.5 
      0 48-21.5 48-48l0-64c0-26.5-21.5-48-48-48l-24 0 0-56 168 0c13.3 0 24 
      10.7 24 24l0 32-24 0c-26.5 0-48 21.5-48 48l0 64c0 26.5 21.5 48 48 48l64 
      0c26.5 0 48-21.5 48-48l0-64c0-26.5-21.5-48-48-48l-24 0 
      0-32c0-22.1-17.9-40-40-40l-168 
      0 0-56 24 0c26.5 0 48-21.5 48-48l0-64c0-26.5-21.5-48-48-48l-64 0z"
          />

          <path
          class="highlight"
            d="
          M0 368c0-26.5 21.5-48 48-48l64 0c26.5 0 48 21.5 48 48l0 64c0 
          26.5-21.5 48-48 48l-64 0c-26.5 0-48-21.5-48-48l0-64zM208 368c0-26.5 
          21.5-48 48-48l64 0c26.5 0 48 21.5 48 48l0 64c0 26.5-21.5 48-48 48l-64 
          0c-26.5 0-48-21.5-48-48l0-64zM416 368c0-26.5 21.5-48 48-48l64 0c26.5 
          0 48 21.5 48 48l0 64c0 26.5-21.5 48-48 48l-64 0c-26.5 
          0-48-21.5-48-48l0-64zM208 80c0-26.5 21.5-48 48-48l64 0c26.5 0 48 21.5 
          48 48l0 64c0 26.5-21.5 48-48 48l-64 0c-26.5 0-48-21.5-48-48l0-64z"
            fill="url(#sitemap-gradient)"
          />

          <path
            d="M320 48c17.7 0 32 14.3 32 32l0 64c0 17.7-14.3 32-32 
          32l-64 0c-17.7 0-32-14.3-32-32l0-64c0-17.7 14.3-32 32-32l64 
          0zM48 336l64 0c17.7 0 32 14.3 32 32l0 64c0 
          17.7-14.3 32-32 32l-64 0c-17.7 0-32-14.3-32-32l0-64c0-17.7 
          14.3-32 32-32zm208 0l64 0c17.7 0 32 14.3 32 
          32l0 64c0 17.7-14.3 32-32 32l-64 0c-17.7 0-32-14.3-32-32l0-64c0-17.7 
          14.3-32 32-32zm208 0l64 0c17.7 0 32 14.3 32 32l0 64c0 17.7-14.3 
          32-32 32l-64 0c-17.7 0-32-14.3-32-32l0-64c0-17.7 14.3-32 32-32z"
            fill="white"
          />
        </svg>