<svg xmlns="http://www.w3.org/2000/svg" viewBox="0 0 25 25"><defs><style>.cls-1{fill:#ffffff;}</style></defs><g id="eraser"><path class="cls-1" d="M7,21.38h3.5a1,1,0,0,0,.68-.26l2.43-2.21a1.2,1.2,0,0,0,.67.27h.06a1.18,1.18,0,0,0,.8-.31l8.6-7.82a1.18,1.18,0,0,0,.08-1.68L16.7,1.51a1.13,1.13,0,0,0-.82-.39,1.21,1.21,0,0,0-.86.31L6.42,9.24a1.17,1.17,0,0,0-.39.83,1.15,1.15,0,0,0,.21.69L2.17,14.45a1.6,1.6,0,0,0-.52,1A1.42,1.42,0,0,0,2,16.56l4,4.37a1.4,1.4,0,0,0,1,.45ZM7.09,10,15.7,2.17a.16.16,0,0,1,.12,0,.17.17,0,0,1,.14.05l7.14,7.87h0a.2.2,0,0,1,0,.26l-8.6,7.82a.21.21,0,0,1-.27,0L14,17.88h0l-3.36-3.7L7.08,10.25A.19.19,0,0,1,7.09,10ZM2.74,15.89a.4.4,0,0,1-.09-.32.58.58,0,0,1,.19-.38l4-3.67,6.05,6.66-2.4,2.19.33.37-.34-.37H7a.37.37,0,0,1-.31-.13Z"/><path class="cls-1" d="M11.29,8.69a.5.5,0,0,0,.34-.13l4.44-4a.5.5,0,0,0,0-.71.49.49,0,0,0-.7,0L11,7.82a.5.5,0,0,0,.33.87Z"/><path class="cls-1" d="M9.07,10.71a.5.5,0,0,0,.34-.13l.74-.67a.5.5,0,0,0-.68-.74l-.74.67a.5.5,0,0,0,0,.71A.49.49,0,0,0,9.07,10.71Z"/><path class="cls-1" d="M18.5,22H6.5a.5.5,0,0,0,0,1h12a.5.5,0,0,0,0-1Z"/><path class="cls-1" d="M23.69,22a.5.5,0,0,0-.38,0,.36.36,0,0,0-.16.11.5.5,0,0,0,.35.85.43.43,0,0,0,.19,0,.36.36,0,0,0,.16-.11.48.48,0,0,0,0-.7A.36.36,0,0,0,23.69,22Z"/><path class="cls-1" d="M21.5,22h-1a.5.5,0,0,0,0,1h1a.5.5,0,0,0,0-1Z"/></g></svg>